<svg width="32" height="32" viewBox="0 0 32 32" version="1.1" xmlns="http://www.w3.org/2000/svg" xmlns:xlink="http://www.w3.org/1999/xlink">
<title>dislike-outline</title>
<desc>Created using Figma</desc>
<g id="Canvas" transform="translate(-5162 -313)">
<g id="dislike-outline">
<g id="Group">
<g id="Group">
<g id="Vector">
<use xlink:href="#path0_fill" transform="translate(5169.84 320.829)" fill="#B13226"/>
</g>
</g>
</g>
<g id="Rectangle 6.5">
<mask id="mask0_outline_ins">
<use xlink:href="#path1_fill" fill="white" transform="translate(5162 313)"/>
</mask>
<g mask="url(#mask0_outline_ins)">
<use xlink:href="#path2_stroke_2x" transform="translate(5162 313)" fill="#B13226"/>
</g>
</g>
</g>
</g>
<defs>
<path id="path0_fill" d="M 0.971946 7.69528C 0.408381 7.8788 0 8.40894 0 9.03288C 0 9.80771 0.628906 10.4398 1.40891 10.4398L 5.5989 10.4398C 5.51722 11.4593 5.19052 12.6256 5.55398 14C 5.86026 15.1581 7.163 16.0267 7.69389 15.5007C 7.89808 15.3008 7.83682 14.8808 7.83682 14.1223C 7.83682 12.3769 8.56374 10.6111 9.46218 9.68945C 9.84606 9.29388 10.4913 9.1593 11.1039 9.13484L 11.1039 9.78732L 15.6777 9.78732L 15.6777 0L 11.108 0L 11.108 1.30498C 10.2667 1.32537 8.95987 1.09292 8.01243 1.03583C 5.88885 0.909405 3.84695 1.1337 2.85458 1.36615C 1.86222 1.5986 1.42525 1.89629 1.42525 2.61403C 1.42525 2.87503 1.50284 3.11563 1.63352 3.31953C 1.15163 3.5112 0.812678 3.98018 0.812678 4.53072C 0.812678 4.82433 0.910689 5.09349 1.07404 5.3137C 0.588068 5.50129 0.240945 5.97435 0.240945 6.52896C 0.245028 7.03872 0.543146 7.48322 0.971946 7.69528ZM 13.7216 1.31721C 14.081 1.31721 14.375 1.60675 14.375 1.9697C 14.375 2.32857 14.081 2.62219 13.7216 2.62219C 13.3622 2.62219 13.0682 2.33265 13.0682 1.9697C 13.0682 1.61083 13.3622 1.31721 13.7216 1.31721Z"/>
<path id="path1_fill" d="M 0 5C 0 2.23857 2.23858 0 5 0L 26.36 0C 29.1214 0 31.36 2.23858 31.36 5L 31.36 26.3158C 31.36 29.0772 29.1214 31.3158 26.36 31.3158L 5 31.3158C 2.23858 31.3158 0 29.0772 0 26.3158L 0 5Z"/>
<path id="path2_stroke_2x" d="M 5 2L 26.36 2L 26.36 -2L 5 -2L 5 2ZM 29.36 5L 29.36 26.3158L 33.36 26.3158L 33.36 5L 29.36 5ZM 26.36 29.3158L 5 29.3158L 5 33.3158L 26.36 33.3158L 26.36 29.3158ZM 2 26.3158L 2 5L -2 5L -2 26.3158L 2 26.3158ZM 5 29.3158C 3.34315 29.3158 2 27.9726 2 26.3158L -2 26.3158C -2 30.1818 1.134 33.3158 5 33.3158L 5 29.3158ZM 29.36 26.3158C 29.36 27.9726 28.0168 29.3158 26.36 29.3158L 26.36 33.3158C 30.226 33.3158 33.36 30.1818 33.36 26.3158L 29.36 26.3158ZM 26.36 2C 28.0168 2 29.36 3.34315 29.36 5L 33.36 5C 33.36 1.13401 30.226 -2 26.36 -2L 26.36 2ZM 5 -2C 1.13401 -2 -2 1.134 -2 5L 2 5C 2 3.34314 3.34314 2 5 2L 5 -2Z"/>
</defs>
</svg>
