<svg width="220" height="60" viewBox="0 0 220 60" version="1.1" xmlns="http://www.w3.org/2000/svg" xmlns:xlink="http://www.w3.org/1999/xlink">
<title>Group</title>
<desc>Created using Figma</desc>
<g id="Canvas" transform="translate(110 106)">
<g id="Group">
<g id="Group">
<g id="Group">
<g id="Vector">
<use xlink:href="#path0_fill" transform="translate(-58.9593 -84.9968)" fill="#FFFFFF"/>
</g>
<g id="Vector">
<use xlink:href="#path1_fill" transform="translate(-34.0194 -85.0447)" fill="#FFFFFF"/>
</g>
<g id="Vector">
<use xlink:href="#path2_fill" transform="translate(-12.1448 -85.2365)" fill="#FFFFFF"/>
</g>
<g id="Vector">
<use xlink:href="#path3_fill" transform="translate(14.6063 -85.1886)" fill="#FFFFFF"/>
</g>
<g id="Vector">
<use xlink:href="#path4_fill" transform="translate(35.7843 -85.3804)" fill="#FFFFFF"/>
</g>
<g id="Vector">
<use xlink:href="#path5_fill" transform="translate(59.0521 -97.3206)" fill="#FFFFFF"/>
</g>
<g id="Vector">
<use xlink:href="#path6_fill" transform="translate(71.5917 -98.7112)" fill="#FFFFFF"/>
</g>
<g id="Vector">
<use xlink:href="#path7_fill" transform="translate(100.433 -98.1837)" fill="#FFFFFF"/>
</g>
</g>
<g id="Group">
<g id="Group">
<g id="Vector">
<use xlink:href="#path8_fill" transform="translate(-99.0859 -106)" fill="#FFFFFF"/>
</g>
</g>
<g id="Group">
<g id="Vector">
<use xlink:href="#path9_fill" transform="translate(-110 -88.1309)" fill="#FFFFFF"/>
</g>
</g>
</g>
</g>
</g>
</g>
<defs>
<path id="path0_fill" d="M 10.4032 -3.65849e-07C 12.2145 -3.65849e-07 13.7935 0.287716 15.0475 0.815194C 16.3015 1.34267 17.3696 2.10991 18.1592 3.02101C 18.9487 3.98006 19.506 5.08297 19.8776 6.37769C 20.2491 7.67241 20.4349 9.06304 20.4349 10.5975L 20.4349 28.6757C 20.0633 28.7716 19.5525 28.9154 18.8558 29.0593C 18.1592 29.2031 17.3696 29.347 16.4872 29.4908C 15.6048 29.6347 14.5831 29.7786 13.5149 29.8745C 12.4003 29.9704 11.2856 30.0183 10.171 30.0183C 8.68482 30.0183 7.33798 29.8745 6.13046 29.5388C 4.92295 29.2031 3.80832 28.6757 2.9259 27.9564C 2.04349 27.2371 1.3004 26.326 0.789529 25.1751C 0.278657 24.0243 7.08662e-07 22.6816 7.08662e-07 21.0512C 7.08662e-07 19.5167 0.278659 18.174 0.882416 17.0711C 1.43973 15.9682 2.2757 15.0571 3.29745 14.3378C 4.31919 13.6185 5.57315 13.0911 7.01288 12.7554C 8.45261 12.4197 9.98523 12.2759 11.7036 12.2759C 12.2145 12.2759 12.7254 12.3238 13.2827 12.3718C 13.84 12.4197 14.3973 12.5156 14.9082 12.6115C 15.419 12.7074 15.8835 12.8033 16.255 12.8992C 16.6266 12.9952 16.9052 13.0911 17.0445 13.139L 17.0445 11.3648C 17.0445 10.3578 16.9517 9.39871 16.8123 8.43966C 16.673 7.48061 16.3479 6.66541 15.8835 5.89817C 15.419 5.13093 14.7224 4.50754 13.84 4.07597C 12.9576 3.59644 11.7965 3.40463 10.3568 3.40463C 8.31328 3.40463 6.78066 3.54849 5.80536 3.83621C 4.78362 4.12392 4.08697 4.36369 3.62254 4.5555L 3.15812 1.39063C 3.76187 1.10291 4.69073 0.815194 5.99113 0.575431C 7.10576 0.0959052 8.63838 -3.65849e-07 10.4032 -3.65849e-07ZM 10.7283 26.7096C 12.0752 26.7096 13.2827 26.6616 14.3044 26.5657C 15.3262 26.4698 16.2086 26.3739 16.9052 26.1821L 16.9052 16.1121C 16.5337 15.9203 15.8835 15.7285 15.0475 15.5366C 14.1651 15.3448 13.004 15.2489 11.5178 15.2489C 10.6354 15.2489 9.75301 15.2969 8.82415 15.4407C 7.89529 15.5846 7.01288 15.8244 6.22335 16.2559C 5.43382 16.6875 4.78362 17.2629 4.27275 17.9822C 3.76187 18.7015 3.52966 19.7085 3.52966 20.9073C 3.52966 21.9623 3.71543 22.8734 4.04053 23.6406C 4.36563 24.3599 4.8765 24.9833 5.48026 25.4149C 6.08402 25.8465 6.87355 26.1821 7.75596 26.3739C 8.63838 26.6137 9.61368 26.7096 10.7283 26.7096Z"/>
<path id="path1_fill" d="M 13.1898 29.9704C 11.0534 29.9704 9.14925 29.6347 7.4773 28.9154C 5.8518 28.1961 4.45851 27.1891 3.39033 25.8944C 2.2757 24.5997 1.48617 23.0172 0.882415 21.195C 0.3251 19.3728 2.83465e-06 17.3588 2.83465e-06 15.1051C 2.83465e-06 12.8513 0.278657 10.7893 0.882415 8.96714C 1.48617 7.09698 2.32214 5.51455 3.43677 4.17188C 4.5514 2.8292 5.89825 1.8222 7.4773 1.10291C 9.05636 0.383621 10.8212 3.65849e-07 12.8182 3.65849e-07C 14.3044 3.65849e-07 15.7441 0.143858 17.0445 0.383621C 18.3449 0.623384 19.3667 0.959051 20.0633 1.39062L 19.1345 4.50754C 18.4378 4.12392 17.6019 3.83621 16.7194 3.59645C 15.837 3.35668 14.6295 3.26078 13.0969 3.26078C 10.0317 3.26078 7.66308 4.26778 6.08402 6.32974C 4.50496 8.3917 3.71543 11.3168 3.71543 15.0571C 3.71543 16.7355 3.9012 18.3179 4.27275 19.7565C 4.64429 21.195 5.20161 22.3939 6.03758 23.4009C 6.82711 24.4079 7.89529 25.2231 9.14925 25.7985C 10.4032 26.3739 11.9823 26.6616 13.7935 26.6616C 15.2797 26.6616 16.5801 26.4698 17.6019 26.1342C 18.6236 25.7985 19.3667 25.4628 19.8311 25.2231L 20.5742 28.34C 19.924 28.7236 18.9023 29.0593 17.5554 29.4429C 16.1621 29.8265 14.7224 29.9704 13.1898 29.9704Z"/>
<path id="path2_fill" d="M -1.41732e-06 15.201C -1.41732e-06 12.6595 0.371543 10.4057 1.06819 8.53556C 1.76483 6.61746 2.74013 5.03502 3.90121 3.78826C 5.06228 2.54149 6.45556 1.58244 7.98817 0.959052C 9.52079 0.335668 11.0999 -3.65849e-07 12.7254 -3.65849e-07C 16.4872 -3.65849e-07 19.3667 1.19882 21.3637 3.6444C 23.3608 6.08998 24.3825 9.73438 24.3825 14.7214C 24.3825 14.9612 24.3825 15.2489 24.3825 15.5846C 24.3825 15.9203 24.3825 16.2559 24.3361 16.5436L 5.2016 16.5436C 5.43382 19.5167 6.26979 21.8184 7.70952 23.3529C 9.19569 24.8874 11.4714 25.7026 14.5831 25.7026C 16.3479 25.7026 17.8341 25.5587 18.9951 25.2231C 20.2027 24.8874 21.0851 24.5997 21.6888 24.312L 22.3855 28.6277C 21.7817 28.9634 20.7135 29.299 19.1809 29.6827C 17.6483 30.0663 15.9299 30.2581 13.9793 30.2581C 11.5643 30.2581 9.42791 29.8745 7.66308 29.1072C 5.89825 28.34 4.41208 27.285 3.29745 25.9903C 2.13637 24.6476 1.3004 23.0652 0.743088 21.243C 0.278659 19.3728 -1.41732e-06 17.3588 -1.41732e-06 15.201ZM 19.1809 12.3718C 19.2274 10.0221 18.67 8.10399 17.509 6.61746C 16.3479 5.13093 14.7224 4.36369 12.6789 4.36369C 11.5178 4.36369 10.5425 4.60345 9.66012 5.03502C 8.77771 5.51455 8.03462 6.08998 7.43086 6.85722C 6.8271 7.57651 6.36268 8.43966 5.99114 9.39871C 5.66604 10.3578 5.43382 11.3168 5.34093 12.3238L 19.1809 12.3238L 19.1809 12.3718Z"/>
<path id="path3_fill" d="M 8.63838 25.7985C 10.6819 25.7985 12.2145 25.5108 13.1898 24.9833C 14.1651 24.4079 14.676 23.5447 14.676 22.298C 14.676 21.0512 14.2115 20.0442 13.2362 19.3249C 12.2609 18.6056 10.6819 17.7425 8.45261 16.8314C 7.38442 16.3998 6.36267 15.9203 5.34093 15.4887C 4.36563 15.0092 3.48321 14.4817 2.78657 13.8583C 2.08992 13.2349 1.48618 12.4677 1.06819 11.6045C 0.650203 10.6934 0.417992 9.63847 0.417992 8.34375C 0.417992 5.80226 1.34685 3.78825 3.15812 2.25377C 4.96939 0.767241 7.47731 7.31699e-07 10.6354 7.31699e-07C 11.425 7.31699e-07 12.2145 0.047953 13.004 0.143858C 13.7935 0.239763 14.5366 0.335669 15.1868 0.479527C 15.8835 0.623384 16.4872 0.767241 16.9981 0.911099C 17.509 1.05496 17.927 1.19881 18.2056 1.29472L 17.2768 5.75431C 16.7194 5.4666 15.8835 5.13093 14.7688 4.84321C 13.6078 4.50754 12.2609 4.36369 10.6354 4.36369C 9.24214 4.36369 8.03462 4.6514 6.96643 5.22683C 5.94469 5.80226 5.38737 6.71336 5.38737 7.91218C 5.38737 8.53556 5.48027 9.11099 5.75892 9.59052C 5.99114 10.07 6.36268 10.5016 6.82711 10.8852C 7.29153 11.2689 7.89529 11.6525 8.63838 11.9881C 9.33502 12.3238 10.2174 12.6595 11.2392 13.0431C 12.586 13.5706 13.7471 14.0501 14.7688 14.5776C 15.7906 15.0571 16.673 15.6805 17.4161 16.3039C 18.1592 16.9752 18.7165 17.7904 19.088 18.7015C 19.4596 19.6606 19.6918 20.8114 19.6918 22.1541C 19.6918 24.8394 18.7165 26.8535 16.8123 28.1961C 14.9082 29.5867 12.168 30.2581 8.63838 30.2581C 6.1769 30.2581 4.2263 30.0663 2.83301 29.6347C 1.43973 29.2031 0.464423 28.8675 -5.6693e-06 28.6757L 0.928852 24.2161C 1.48617 24.4558 2.41504 24.7915 3.66899 25.2231C 4.87651 25.5587 6.54845 25.7985 8.63838 25.7985Z"/>
<path id="path4_fill" d="M 9.10281 24.8874C 10.8212 24.8874 12.0752 24.6956 12.8647 24.264C 13.6542 23.8324 14.0258 23.1132 14.0258 22.0582C 14.0258 21.0991 13.6078 20.2839 12.7718 19.6606C 11.9358 19.0372 10.5425 18.3658 8.59193 17.5986C 7.43086 17.167 6.31623 16.6875 5.34093 16.16C 4.36563 15.6805 3.48321 15.0571 2.78657 14.4337C 2.08993 13.7624 1.48617 12.9472 1.11462 12.0361C 0.696638 11.077 0.510872 9.92619 0.510872 8.58352C 0.510872 5.89817 1.43973 3.83621 3.34389 2.30172C 5.24805 0.767241 7.8024 -1.02217e-14 11.0998 -1.02217e-14C 12.7253 -1.02217e-14 14.3044 0.143858 15.837 0.479526C 17.3232 0.815194 18.4843 1.10291 19.2274 1.39063L 18.0663 6.80927C 17.3696 6.4736 16.4408 6.18588 15.3262 5.89817C 14.2115 5.61045 12.9111 5.4666 11.4714 5.4666C 10.1246 5.4666 9.05637 5.70636 8.26684 6.13793C 7.43087 6.61746 7.01288 7.28879 7.01288 8.2958C 7.01288 8.77532 7.10576 9.2069 7.24509 9.59052C 7.38442 9.97414 7.66307 10.3098 8.08106 10.5975C 8.4526 10.9332 9.00993 11.2209 9.66013 11.5566C 10.3103 11.8922 11.0998 12.18 12.0287 12.5156C 13.5613 13.0911 14.8617 13.6665 15.9299 14.2419C 16.9981 14.8174 17.8805 15.4407 18.5772 16.16C 19.2738 16.8793 19.7847 17.6945 20.1098 18.6056C 20.4349 19.5167 20.5742 20.6196 20.5742 21.9143C 20.5742 24.6956 19.5989 26.8055 17.6019 28.1961C 15.6048 29.6347 12.7718 30.354 9.10281 30.354C 6.64133 30.354 4.6443 30.1622 3.15812 29.7306C 1.67195 29.299 0.603755 28.9634 -2.83465e-06 28.7236L 1.11462 23.1131C 2.08992 23.4968 3.251 23.9283 4.59784 24.264C 5.8518 24.6956 7.38442 24.8874 9.10281 24.8874Z"/>
<path id="path5_fill" d="M 7.94174 4.17187C 7.94174 5.41864 7.57019 6.42565 6.78067 7.14494C 5.99114 7.86422 5.06228 8.24785 3.99409 8.24785C 2.87946 8.24785 1.9506 7.86422 1.16107 7.14494C 0.371543 6.42565 0 5.41864 0 4.17187C 0 2.87715 0.371543 1.87015 1.16107 1.10291C 1.9506 0.383621 2.87946 1.82925e-07 3.99409 1.82925e-07C 5.06228 1.82925e-07 5.99114 0.383621 6.78067 1.10291C 7.52375 1.8222 7.94174 2.87715 7.94174 4.17187ZM 7.24509 41.6708L 0.743089 41.6708L 0.743089 12.6595L 7.24509 12.6595L 7.24509 41.6708Z"/>
<path id="path6_fill" d="M 26.1938 28.4359C 26.1938 30.7856 25.8687 32.8955 25.2185 34.7656C 24.5683 36.6358 23.593 38.2662 22.339 39.6088C 21.0851 40.9515 19.5525 41.9585 17.7412 42.6778C 15.9299 43.3971 13.84 43.7807 11.5178 43.7807C 10.5425 43.7807 9.52079 43.7328 8.49904 43.6369C 7.43086 43.541 6.40912 43.4451 5.38738 43.2532C 4.36564 43.1094 3.39033 42.9176 2.46147 42.7258C 1.53261 42.534 0.696643 42.2942 0 42.1024L 0 1.34267L 7.98818 -9.14623e-08L 7.98818 14.5296C 8.8706 14.146 9.79946 13.8103 10.7748 13.5706C 11.7501 13.3308 12.7718 13.2349 13.8864 13.2349C 15.8835 13.2349 17.6483 13.6185 19.2274 14.3378C 20.76 15.0571 22.0604 16.0641 23.0821 17.4068C 24.1039 18.7495 24.8934 20.3319 25.4507 22.2021C 25.9151 24.0722 26.1938 26.1821 26.1938 28.4359ZM 18.0198 28.2441C 18.0198 22.9213 16.1157 20.236 12.3074 20.236C 11.4714 20.236 10.6819 20.3319 9.8459 20.5717C 9.00993 20.8114 8.40616 21.0512 7.89529 21.3869L 7.89529 36.444C 8.26684 36.5399 8.77771 36.5878 9.38147 36.6358C 9.98523 36.6837 10.6354 36.7317 11.3785 36.7317C 13.5613 36.7317 15.2333 35.9645 16.3015 34.382C 17.4625 32.8475 18.0198 30.7856 18.0198 28.2441Z"/>
<path id="path7_fill" d="M 9.56724 4.89116C 9.56724 6.42565 9.10281 7.62446 8.12751 8.48761C 7.19865 9.35076 6.03757 9.78233 4.78361 9.78233C 3.48321 9.78233 2.36859 9.35076 1.43974 8.48761C 0.510878 7.62446 2.83465e-06 6.42565 2.83465e-06 4.89116C 2.83465e-06 3.35668 0.464435 2.20582 1.43974 1.29472C 2.36859 0.431573 3.52966 -3.65849e-07 4.78361 -3.65849e-07C 6.08402 -3.65849e-07 7.19865 0.431573 8.12751 1.29472C 9.10281 2.20582 9.56724 3.40463 9.56724 4.89116ZM 8.82415 42.5339L 0.835969 42.5339L 0.835969 13.3308L 8.82415 13.3308L 8.82415 42.5339Z"/>
<path id="path8_fill" d="M 9.00992 18.6056C 13.986 18.6056 18.0198 14.4406 18.0198 9.3028C 18.0198 4.16501 13.986 0 9.00992 0C 4.03388 0 0 4.16501 0 9.3028C 0 14.4406 4.03388 18.6056 9.00992 18.6056Z"/>
<path id="path9_fill" d="M 39.1514 2.94233C 38.2689 1.26399 36.597 -0.174592 34.6464 0.0172183C 33.8569 0.113124 31.5347 0.832413 31.5347 0.832413L 19.9704 3.80547L 8.35972 0.832413C 8.35972 0.832413 6.03758 0.113124 5.24805 0.0172183C 3.29745 -0.126639 1.6255 1.31194 0.696643 2.94233C 0.278657 3.75752 0 4.71657 0 5.67562C 0 5.72358 0 5.77153 0 5.81948C 0.0464429 7.83349 0.975301 9.79955 2.64724 10.5188C 3.39033 10.8545 5.75892 11.334 5.75892 11.334L 14.6295 13.6358L 14.6295 20.493L 7.33798 31.1864C 7.33798 31.1864 5.80536 33.2004 5.43382 33.9677C 5.2016 34.4951 5.15516 35.0706 5.15516 35.6939C 5.15516 37.0366 5.61959 38.2354 6.36268 39.2424C 7.01288 40.0576 7.89529 40.729 8.87059 41.0646C 9.42791 41.2565 10.0317 41.4003 10.6354 41.4003C 11.9358 41.4003 13.2362 41.0646 14.0722 40.1535C 14.5831 39.5781 15.837 37.5641 15.837 37.5641L 19.8776 31.6659L 23.8716 37.5161C 23.8716 37.5161 25.172 39.6261 25.7294 40.2015C 26.5653 41.0646 27.8193 41.4003 29.1197 41.4003C 29.7699 41.4003 30.3737 41.2565 30.931 41.0646C 31.9063 40.729 32.7422 40.1056 33.3924 39.2904C 34.182 38.3313 34.6464 37.0846 34.6464 35.7419C 34.6464 35.1185 34.6 34.4951 34.3677 33.9677C 33.9962 33.2484 32.51 31.2823 32.51 31.2823L 25.172 20.445L 25.172 13.6358L 34.0891 11.334C 34.0891 11.334 36.4577 10.8545 37.2008 10.5188C 38.8727 9.79955 39.8016 7.83349 39.848 5.81948C 39.848 5.77153 39.848 5.72358 39.848 5.67562C 39.848 4.71657 39.5693 3.75752 39.1514 2.94233Z"/>
</defs>
</svg>
