<svg width="32" height="32" viewBox="0 0 32 32" version="1.1" xmlns="http://www.w3.org/2000/svg" xmlns:xlink="http://www.w3.org/1999/xlink">
<title>like-outline</title>
<desc>Created using Figma</desc>
<g id="Canvas" transform="translate(-5121 -313)">
<g id="like-outline">
<g id="Group">
<g id="Group">
<g id="Vector">
<use xlink:href="#path0_fill" transform="translate(5128.84 320.829)" fill="#415B00"/>
</g>
</g>
</g>
<g id="Rectangle 6.6">
<mask id="mask0_outline_ins">
<use xlink:href="#path1_fill" fill="white" transform="translate(5121 313)"/>
</mask>
<g mask="url(#mask0_outline_ins)">
<use xlink:href="#path2_stroke_2x" transform="translate(5121 313)" fill="#415B00"/>
</g>
</g>
</g>
</g>
<defs>
<path id="path0_fill" d="M 15.2153 7.96261C 15.7983 7.7791 16.2207 7.24895 16.2207 6.62501C 16.2207 5.85018 15.5702 5.21808 14.7634 5.21808L 10.4294 5.21808C 10.5139 4.19857 10.8518 3.03224 10.4759 1.65794C 10.159 0.499774 8.81155 -0.368851 8.26241 0.157218C 8.0512 0.357042 8.11456 0.777081 8.11456 1.5356C 8.11456 3.281 7.36267 5.0468 6.43336 5.96844C 6.03629 6.36401 5.36888 6.49859 4.73526 6.52306L 4.73526 5.87057L 0 5.87057L 0 15.6579L 4.73103 15.6579L 4.73103 14.3529C 5.6012 14.3325 6.95293 14.565 7.93293 14.6221C 10.1295 14.7485 12.2415 14.5242 13.268 14.2917C 14.2945 14.0593 14.7465 13.7616 14.7465 13.0439C 14.7465 12.7829 14.6662 12.5423 14.531 12.3384C 15.0295 12.1467 15.3801 11.6777 15.3801 11.1272C 15.3801 10.8336 15.2787 10.5644 15.1097 10.3442C 15.6124 10.1566 15.9715 9.68355 15.9715 9.12893C 15.9672 8.61917 15.6589 8.17467 15.2153 7.96261ZM 2.02758 14.3407C 1.65586 14.3407 1.35172 14.0511 1.35172 13.6882C 1.35172 13.3293 1.65586 13.0357 2.02758 13.0357C 2.39931 13.0357 2.70345 13.3252 2.70345 13.6882C 2.70345 14.0471 2.39931 14.3407 2.02758 14.3407Z"/>
<path id="path1_fill" d="M 0 5C 0 2.23857 2.23858 0 5 0L 26.36 0C 29.1214 0 31.36 2.23858 31.36 5L 31.36 26.3158C 31.36 29.0772 29.1214 31.3158 26.36 31.3158L 5 31.3158C 2.23858 31.3158 0 29.0772 0 26.3158L 0 5Z"/>
<path id="path2_stroke_2x" d="M 5 2L 26.36 2L 26.36 -2L 5 -2L 5 2ZM 29.36 5L 29.36 26.3158L 33.36 26.3158L 33.36 5L 29.36 5ZM 26.36 29.3158L 5 29.3158L 5 33.3158L 26.36 33.3158L 26.36 29.3158ZM 2 26.3158L 2 5L -2 5L -2 26.3158L 2 26.3158ZM 5 29.3158C 3.34315 29.3158 2 27.9726 2 26.3158L -2 26.3158C -2 30.1818 1.134 33.3158 5 33.3158L 5 29.3158ZM 29.36 26.3158C 29.36 27.9726 28.0168 29.3158 26.36 29.3158L 26.36 33.3158C 30.226 33.3158 33.36 30.1818 33.36 26.3158L 29.36 26.3158ZM 26.36 2C 28.0168 2 29.36 3.34315 29.36 5L 33.36 5C 33.36 1.13401 30.226 -2 26.36 -2L 26.36 2ZM 5 -2C 1.13401 -2 -2 1.134 -2 5L 2 5C 2 3.34314 3.34314 2 5 2L 5 -2Z"/>
</defs>
</svg>
