<svg width="17" height="22" viewBox="0 0 17 22" version="1.1" xmlns="http://www.w3.org/2000/svg" xmlns:xlink="http://www.w3.org/1999/xlink">
<title>Group</title>
<desc>Created using Figma</desc>
<g id="Canvas" transform="translate(-4282 -235)">
<g id="Group">
<g id="Group">
<g id="Vector">
<use xlink:href="#path0_fill" transform="translate(4282 235)" fill="#828282"/>
</g>
</g>
</g>
</g>
<defs>
<path id="path0_fill" d="M 16.3911 6.00417C 16.3396 5.87813 16.2766 5.75781 16.1906 5.65469L 11.3896 0.401042C 11.2807 0.280729 11.149 0.194792 11.0057 0.120312C 10.8396 0.034375 10.6562 0 10.4615 0L 1.30052 0C 0.590104 0 0 0.607292 0 1.36927L 0 20.5734C 0 21.3411 0.590104 22 1.30052 22L 15.2281 22C 15.9385 22 16.5 21.3411 16.5 20.5734L 16.5 6.58854C 16.5 6.38229 16.4714 6.18177 16.3911 6.00417ZM 2.75 6.54271C 2.75 6.45677 2.85313 6.4224 2.94479 6.4224L 7.00104 6.4224C 7.09271 6.4224 7.16146 6.45677 7.16146 6.54271L 7.16146 7.16146C 7.16146 7.24167 7.09844 7.33906 7.00104 7.33906L 2.94479 7.33906C 2.85313 7.33906 2.75 7.24167 2.75 7.16146L 2.75 6.54271ZM 2.75 13.876C 2.75 13.7901 2.85313 13.7557 2.94479 13.7557L 9.94583 13.7557C 10.0375 13.7557 10.0833 13.7901 10.0833 13.876L 10.0833 14.4948C 10.0833 14.575 10.0432 14.6724 9.94583 14.6724L 2.94479 14.6724C 2.85313 14.6724 2.75 14.575 2.75 14.4948L 2.75 13.876ZM 11.9167 18.1615C 11.9167 18.2417 11.8766 18.3391 11.7792 18.3391L 2.94479 18.3391C 2.85313 18.3391 2.75 18.2417 2.75 18.1615L 2.75 17.5427C 2.75 17.4568 2.85313 17.4224 2.94479 17.4224L 11.7792 17.4224C 11.8708 17.4224 11.9167 17.4568 11.9167 17.5427L 11.9167 18.1615ZM 13.75 10.8281C 13.75 10.9083 13.7099 11.0057 13.6125 11.0057L 2.94479 11.0057C 2.85313 11.0057 2.75 10.9083 2.75 10.8281L 2.75 10.2094C 2.75 10.1234 2.85313 10.0891 2.94479 10.0891L 13.6125 10.0891C 13.7042 10.0891 13.75 10.1234 13.75 10.2094L 13.75 10.8281ZM 11.063 6.47969C 10.7422 6.47969 10.4271 6.18177 10.4271 5.83229L 10.4271 2.05104L 14.5062 6.47969L 11.063 6.47969Z"/>
</defs>
</svg>
