<svg width="20" height="20" viewBox="0 0 20 20" version="1.1" xmlns="http://www.w3.org/2000/svg" xmlns:xlink="http://www.w3.org/1999/xlink">
<title>Group</title>
<desc>Created using Figma</desc>
<g id="Canvas" transform="translate(-4282 -176)">
<g id="Group">
<g id="Group">
<g id="Vector">
<use xlink:href="#path0_fill" transform="translate(4282 176)" fill="#828282"/>
</g>
</g>
</g>
</g>
<defs>
<path id="path0_fill" d="M 10 0C 4.47768 0 0 4.47768 0 10C 0 15.5223 4.47768 20 10 20C 15.5223 20 20 15.5223 20 10C 20 4.47768 15.5223 0 10 0ZM 3.18304 9.87946C 2.8125 9.62946 2.77232 9.20536 3.01786 8.88839C 3.48661 8.28571 4.07589 7.85714 5.00893 7.85714C 5.94196 7.85714 6.53571 8.28571 7.00446 8.89286C 7.25 9.20982 7.17411 9.65179 6.83482 9.87946C 6.70536 9.96875 6.55357 10 6.39286 10C 6.15179 10 5.92411 9.90625 5.78125 9.72321C 5.62946 9.52679 5.44196 9.28571 5.01339 9.28571C 4.58482 9.28571 4.39732 9.52679 4.24107 9.72321C 4.09821 9.90625 3.87054 10 3.62946 10C 3.46429 10 3.3125 9.96875 3.18304 9.87946ZM 16.1696 12.4509C 15.1161 14.4955 12.692 15.7143 10 15.7143C 7.23661 15.7143 4.75 14.4554 3.8125 12.4241C 3.64732 12.0714 3.80357 11.6473 4.15625 11.4821C 4.25 11.4375 4.35268 11.4152 4.45536 11.4152C 4.73214 11.4152 4.98214 11.5759 5.09821 11.8259C 5.80804 13.3616 7.77679 14.2812 10 14.2812C 12.1696 14.2812 14.0982 13.375 14.9152 11.7991C 15.0357 11.5625 15.2768 11.4152 15.5446 11.4152C 15.6563 11.4152 15.7723 11.442 15.8705 11.4955C 16.2143 11.6786 16.3527 12.1071 16.1696 12.4509ZM 16.8304 9.87946C 16.7009 9.96875 16.5491 10 16.3884 10C 16.1473 10 15.9196 9.90625 15.7768 9.72321C 15.625 9.52679 15.4375 9.28571 15.0089 9.28571C 14.5804 9.28571 14.3929 9.52679 14.2366 9.72321C 14.0938 9.90625 13.8661 10 13.625 10C 13.4643 10 13.3125 9.96875 13.183 9.87946C 12.8125 9.62946 12.7723 9.20536 13.0179 8.88839C 13.4866 8.28571 14.0759 7.85714 15.0089 7.85714C 15.942 7.85714 16.5357 8.28571 17.0045 8.89286C 17.2455 9.20982 17.1696 9.65179 16.8304 9.87946Z"/>
</defs>
</svg>
