<svg width="20" height="20" viewBox="0 0 20 20" version="1.1" xmlns="http://www.w3.org/2000/svg" xmlns:xlink="http://www.w3.org/1999/xlink">
<title>Group</title>
<desc>Created using Figma</desc>
<g id="Canvas" transform="translate(-4282 -55)">
<g id="Group">
<g id="Group">
<g id="Vector">
<use xlink:href="#path0_fill" transform="translate(4282 55)" fill="#828282"/>
</g>
</g>
</g>
</g>
<defs>
<path id="path0_fill" d="M 18.7604 10.1707C 19.4792 9.93633 20 9.25916 20 8.4622C 20 7.4725 19.1979 6.66511 18.2031 6.66511L 12.8594 6.66511C 12.9635 5.36288 13.3802 3.87312 12.9167 2.11771C 12.526 0.638367 10.8646 -0.471138 10.1875 0.200816C 9.92708 0.456054 10.0052 0.992575 10.0052 1.96144C 10.0052 4.19086 9.07812 6.44634 7.93229 7.62356C 7.44271 8.12882 6.61979 8.30072 5.83854 8.33197L 5.83854 7.49854L 0 7.49854L 0 20L 5.83333 20L 5.83333 18.3331C 6.90625 18.3071 8.57292 18.604 9.78125 18.6769C 12.4896 18.8384 15.0938 18.5519 16.3594 18.255C 17.625 17.9581 18.1823 17.5778 18.1823 16.6611C 18.1823 16.3277 18.0833 16.0204 17.9167 15.7599C 18.5312 15.5151 18.9635 14.9161 18.9635 14.2129C 18.9635 13.8378 18.8385 13.494 18.6302 13.2128C 19.25 12.9731 19.6927 12.3689 19.6927 11.6605C 19.6875 11.0094 19.3073 10.4416 18.7604 10.1707ZM 2.5 18.3175C 2.04167 18.3175 1.66667 17.9477 1.66667 17.4841C 1.66667 17.0257 2.04167 16.6507 2.5 16.6507C 2.95833 16.6507 3.33333 17.0205 3.33333 17.4841C 3.33333 17.9425 2.95833 18.3175 2.5 18.3175Z"/>
</defs>
</svg>
